# xmcd
#
# Track frame offsets:
#	150
#	13555
#	29932
#	41562
#	53797
#	65747
#	84095
#	89407
#	104277
#	118102
#	124400
#	139502
#	152372
#	165732
#	178907
#	190560
#	198715
#	213612
#	225123
#	239486
#	254831
#
# Disc length: 3568 seconds
#
# Revision: 2
# Processed by: cddbd v1.5.2PL0 Copyright (c) Steve Scherf et al.
# Submitted via: audiograbber 1.83.01
#
DISCID=2b0dee15
DTITLE=Wise Guys - Alles im grünen Bereich
DYEAR=1900
DGENRE=
TTITLE0=Opener
TTITLE1=Ruf doch mal an
TTITLE2=Alles im grünen Bereich
TTITLE3=Ich schmeiß mein Auto auf den Müll
TTITLE4=Wie kann es sein
TTITLE5=Schwachkopf
TTITLE6=Julia
TTITLE7=Ich bin raus
TTITLE8=Dumm gelaufen
TTITLE9=Tekkno
TTITLE10=Köln ist korrekt
TTITLE11=Alles Banane
TTITLE12=Haarige Zeiten
TTITLE13=Wie die Zeit vergeht
TTITLE14=Die Frau hat Rythmus
TTITLE15=Ich will kein A- Capella
TTITLE16=Lullaby
TTITLE17=Do you believe ( in Kölle Allaaf)
TTITLE18=Mach mir den Skywalker
TTITLE19=Oh Scheiße
TTITLE20=Nein Nein Nein
EXTD=
EXTT0=
EXTT1=
EXTT2=
EXTT3=
EXTT4=
EXTT5=
EXTT6=
EXTT7=
EXTT8=
EXTT9=
EXTT10=
EXTT11=
EXTT12=
EXTT13=
EXTT14=
EXTT15=
EXTT16=
EXTT17=
EXTT18=
EXTT19=
EXTT20=
PLAYORDER=
